Simulation
nRows=36
nColumns=15
endheader
time  TH_x TH_y TH_z SC_y  SC_z  SC_x  AC_y  AC_z  AC_x  GH_y  GH_z  GH_yy  EL_x  PS_y
0.0  0.000000  0.000000  0.000000  -40.97484877243665  6.293857566463187  5.290427962726946  46.77584517894692  0.9984504830793982  1.047785462451854  -24.80036108806823  1.1314697907334899  47.49083897008236  22.613996007466618  120.000000
0.05745  0.000000  0.000000  0.000000  -40.235732040729715  5.308081594556556  3.2050497587693783  46.28593510451514  2.011862618529926  1.1979274212101756  -18.493053651606374  3.2214742842963378  40.8791634416538  22.037016081040598  120.000000
0.1149  0.000000  0.000000  0.000000  -39.53222265152981  4.229619608414271  1.2658707698951575  45.889743599047364  2.8852634446931282  1.373899818560944  -15.170376169905024  5.224899603152151  37.21459834692555  21.641676713892387  120.000000
0.17235  0.000000  0.000000  0.000000  -38.91923737457915  3.1721157749540962  -0.5094760040402593  45.588025022715655  3.607977214841083  1.5727393518885182  -12.185965035595204  7.199062233575314  33.81343083320306  21.50419605136334  120.000000
0.2298  0.000000  0.000000  0.000000  -38.44565784349709  2.1996776771508633  -2.1108627866104555  45.36431993393223  4.197521881477169  1.8130539255397173  -9.54629312180248  9.244754710984509  30.641958000051293  21.628865161075975  120.000000
0.28725  0.000000  0.000000  0.000000  -38.12545892576835  1.367509128059305  -3.5281013293532797  45.211323643623174  4.70386126530269  2.1040745140033774  -7.403267297306855  11.46797710173939  27.81314843516764  21.955362143382384  120.000000
0.3447  0.000000  0.000000  0.000000  -37.97332088657782  0.7256243864064873  -4.744159381047502  45.116324719791535  5.178166922391482  2.444935359296479  -5.821425929492254  13.95275830715708  25.35432340441742  22.38518153827983  120.000000
0.40215  0.000000  0.000000  0.000000  -38.001212630272036  0.3045070639056921  -5.7372609620979595  45.067864125008924  5.655273433444494  2.828915963263871  -4.752769659600129  16.753575050722425  23.18904984608255  22.80857826259568  120.000000
0.4596  0.000000  0.000000  0.000000  -38.21572790846211  0.12324958833322358  -6.486193825071793  45.06248520332723  6.139439013421026  3.2431811867787532  -4.084715745813702  19.890180853808392  21.192283741678068  23.133812823341618  120.000000
0.51705  0.000000  0.000000  0.000000  -38.60619032780242  0.18523724852124493  -6.994840339803799  45.09968875856247  6.621103439432507  3.6900710039723803  -3.7123051182506988  23.346698721284593  19.269073861553174  23.301478272825296  120.000000
0.5745  0.000000  0.000000  0.000000  -39.15204862427117  0.47323984086293475  -7.300101706189069  45.18340945474798  7.088078048614462  4.19234970022855  -3.52971341440054  27.078180245150143  17.345551551019124  23.291282432649943  120.000000
0.63195  0.000000  0.000000  0.000000  -39.828026082211956  0.9494820115612608  -7.439604412324758  45.331823028708236  7.515305091135649  4.765607453979727  -3.430045566488186  31.020560684774754  15.362593250875916  23.11536331749886  120.000000
0.6894  0.000000  0.000000  0.000000  -40.614466976917925  1.5660066941709037  -7.443653064219686  45.568969151880445  7.874192873191992  5.421613641745401  -3.3107223603362925  35.0993804561417  13.267032702057291  22.80263628460244  120.000000
0.74685  0.000000  0.000000  0.000000  -41.49678105135333  2.2760362899098086  -7.333454796514523  45.9232929042699  8.143568616474365  6.159631505608972  -3.092355283153381  39.2398251759754  11.019792461590368  22.388391039409697  120.000000
0.8043  0.000000  0.000000  0.000000  -42.461908492679164  3.037813083880506  -7.117140382362684  46.413607471476354  8.316042026096888  6.967854766226028  -2.7311000112638593  43.37124109594469  8.600244625621716  21.907966258209154  120.000000
0.86175  0.000000  0.000000  0.000000  -43.48670250757377  3.8170913411006415  -6.78871138320543  47.04472575687209  8.40015405589438  7.819977371640298  -2.2222924454753246  47.429676196546126  6.013647122315492  21.395004642461792  120.000000
0.9192  0.000000  0.000000  0.000000  -44.535683989294185  4.589295817682257  -6.331309902873378  47.801225928778805  8.415792563541947  8.677582434454225  -1.5920736276320284  51.35602508501837  3.2939001696920442  20.87969183299528  120.000000
0.97665  0.000000  0.000000  0.000000  -45.566980311776746  5.339139326493268  -5.723320663902686  48.64225069161916  8.387013778623684  9.496482413461601  -0.8883243053380542  55.0957828762705  0.5090546240355718  20.384780222948503  120.000000
1.0341  0.000000  0.000000  0.000000  -46.54075131559521  6.066004131578048  -4.946797330782678  49.509424978151415  8.33843809126305  10.229354382527049  -0.1634621517927374  58.60014783319545  -2.2443240274159235  19.92233512397659  120.000000
1.09155  0.000000  0.000000  0.000000  -47.42433977460667  6.771800613478907  -3.9910593667559167  50.335475829249155  8.29126626296471  10.837572019981371  0.535751434049357  61.82474846795441  -4.850243237963684  19.492989508707662  120.000000
1.149  0.000000  0.000000  0.000000  -48.19644727318867  7.454929482511964  -2.8614861335628676  51.06218709707564  8.261347724344892  11.292232118664248  1.1773408380272723  64.7277575179247  -7.195114202756291  19.092841680027508  120.000000
1.20645  0.000000  0.000000  0.000000  -48.84756746310845  8.105836316004435  -1.58499108536242  51.6519233688525  8.256945361957015  11.58073425818362  1.7454845905911067  67.27294657186873  -9.192821331259713  18.716770614593504  120.000000
1.2639  0.000000  0.000000  0.000000  -49.382119940049044  8.706095807142386  -0.21238597674177875  52.090382462235965  8.276588618615854  11.708250565414064  2.23747239897739  69.43450674817845  -10.80471235485414  18.363373546916034  120.000000
1.32135  0.000000  0.000000  0.000000  -49.811329368852775  9.232216451715777  1.184139161632229  52.38677874919029  8.310126785574749  11.694822717702596  2.656818972475261  71.20220099072729  -12.043983457693484  18.036438215087294  120.000000
1.3788  0.000000  0.000000  0.000000  -50.14491727257016  9.65963165949801  2.51915358689557  52.56848018082772  8.34013891558281  11.572334554928352  3.0103202905268454  72.58029272025776  -12.96456888273538  17.743598601216203  120.000000
1.43625  0.000000  0.000000  0.000000  -50.384242138009064  9.968460251856927  3.6991965277631254  52.67229364894224  8.3441466089915  11.376497230677469  3.3031319813695608  73.58511982374725  -13.637934163366841  17.493855324472353  120.000000
1.4937  0.000000  0.000000  0.000000  -50.52343583396445  10.144097359013529  4.631115494069039  52.7327624849011  8.296427935532268  11.142426096829121  3.537298185254222  74.2392103648798  -14.130613667389943  17.29558154649426  120.000000
1.55115  0.000000  0.000000  0.000000  -50.550923072484025  10.17731798596123  5.226258149048768  52.775446007902566  8.170665665784375  10.898284553591367  3.7092831836626896  74.5684732005463  -14.487678592162727  17.154734807086616  120.000000
1.6086  0.000000  0.000000  0.000000  -50.457283285958624  10.065552960769597  5.418093336239689  52.8089000923484  7.951923962284643  10.667802128325455  3.815278437152466  74.57133699255165  -14.734677360589904  17.0748897418829  120.000000
1.66605  0.000000  0.000000  0.000000  -50.24141874163575  9.81621459994034  5.178608525786158  52.82184125957039  7.651854968341465  10.471761764146752  3.8559325256496995  74.19364111283099  -14.887808006559327  17.05676452875387  120.000000
1.7235  0.000000  0.000000  0.000000  -49.90573261621029  9.438201826077773  4.516976815037347  52.79142436916365  7.30572116885759  10.324676085015541  3.8304192954349454  73.36635897044205  -14.956854816701574  17.093953974634257  120.000000
1.78095  0.000000  0.000000  0.000000  -49.45197609619801  8.936743461632261  3.474593760505185  52.692818884733434  6.966669727221185  10.2300985293624  3.7323629232344144  72.04291866770939  -14.946911875213042  17.170390099488216  120.000000
1.8384  0.000000  0.000000  0.000000  -48.880712139912966  8.319660912508837  2.122311111517326  52.50485123181394  6.699693270918763  10.179282116532839  3.5524506657236485  70.20298852302648  -14.865758299972269  17.26088496149806  120.000000
1.89585  0.000000  0.000000  0.000000  -48.195218202488384  7.599974397039077  0.5521237851392432  52.21207842268247  6.5693957361158315  10.153532070278526  3.284752520499517  67.85130042434386  -14.726518576706939  17.33816083681186  120.000000
1.9533  0.000000  0.000000  0.000000  -47.40610400387567  6.799991516154405  -1.1364978788452416  51.80584715052235  6.626004909795305  10.12596565684348  2.930200238626667  65.01636476965025  -14.549606181632866  17.379434359592548  120.000000
2.01075  0.000000  0.000000  0.000000  -46.53892191539903  5.9485783985575225  -2.848759231059952  51.282869590547605  6.89330987746773  10.066642120763449  2.5014009102087416  61.74746809994589  -14.361695343274189  17.373616451808346  120.000000
